<?xml version="1.0" encoding="UTF-8"?>
<svg xmlns="http://www.w3.org/2000/svg" version="1.1" viewBox="0 0 1000 1000">
  <!-- Generator: Adobe Illustrator 30.0.0, SVG Export Plug-In . SVG Version: 2.1.1 Build 123)  -->
  <defs>
    <style>
      .st0, .st1, .st2, .st3, .st4, .st5, .st6 {
        stroke-miterlimit: 10;
      }

      .st0, .st1, .st7, .st3, .st4 {
        fill: #fff;
      }

      .st0, .st2 {
        stroke: #000;
      }

      .st0, .st2, .st3, .st5, .st6 {
        stroke-width: 3px;
      }

      .st1, .st4 {
        stroke-width: .75px;
      }

      .st1, .st6 {
        stroke: #e6e7e8;
      }

      .st8 {
        fill: #231f20;
      }

      .st3, .st4, .st5 {
        stroke: #fff;
      }

      .st6 {
        fill: #e6e7e8;
      }
    </style>
  </defs>
  <g id="tux">
    <path class="st7" d="M457.68,579.49c16.1,20.75,14.7,15.93,29.43,34.87,13.92,17.89,17.72,25.47,27.85,27.85,8.87,2.08,16.66-1.22,20.6-2.94,22.39-9.82,30.48-36.19,34.87-50.49,4.44-14.47.84-11.19,6.11-59.32,3.15-28.69,5.98-44.03-2.72-50.49-4.43-3.29-10.1-2.97-14.72-2.72-13.94.78-18.43,9.17-30.11,14.04-10.93,4.55-24.42,1.67-51.4-4.08-18.49-3.94-27.74-5.91-36-10.64-15.26-8.74-21.23-19.24-35.77-19.92-4.93-.23-11.4-.54-14.72,3.4-8.74,10.37,11.98,41.34,41.89,86.04,10.08,15.06,17.91,25.69,24.68,34.42Z"/>
    <path class="st2" d="M385.68,436.85c5.88-1.15,13.55,7.15,14.94,14.94.56,3.1-.32,3.68,0,8.15.48,6.8,2.95,11.82,4.53,14.94,19.91,39.5,21.28,41.66,21.28,41.66,20.33,32.07,30.5,48.11,33.06,51.62,14.43,19.83,35.33,45.43,64.3,72.45,11.78-14.91,20.11-28.3,25.81-38.49,8.53-15.25,11.78-24.41,13.58-30.34,2.31-7.57,3.34-13.42,4.08-17.66,1.11-6.41,4.05-25.53,1.36-50.72-.7-6.58-1.99-15.45-4.53-25.81,2.16-2.8,6.87-7.99,13.58-8.6,5.34-.49,9.44,2.16,13.13,4.53,34.7,22.27,33.34,20.08,39.85,25.81,4.92,4.33,10.75,7.6,15.4,12.23,2.8,2.78,5.31,5.68,8.6,5.43,3.25-.24,5.58-3.42,6.79-5.43,7.85-14.19,15.7-28.38,23.55-42.57,2.4.31,5.54,1.15,7.25,3.62,2.2,3.19.24,6.48.45,10.42.55,10.05,14.89,17.04,22.64,20.83,6.33,3.09,11.31,4.17,21.28,6.34,9.01,1.96,11.33,1.56,13.13.91,6.48-2.35,7.46-8.43,12.68-9.06,2.24-.27,5.53.43,9.96,4.98-1.66,12.28-5.35,30.63-14.49,51.17-8.93,20.05-18.38,41.29-39.85,55.25-30.23,19.66-65.24,12.5-75.62,9.96,1.86,26.19,3.71,52.39,5.57,78.58h-315c1.5-18.96,4.29-40.39,9.21-63.64,4.65-21.98,10.38-41.68,16.3-58.87-8.4,14.18-18.3,34.13-25.36,59.32-6.97,24.89-8.91,46.83-9.15,63.19h-90c-.36-6.57-.62-15.88,0-27,2.61-47.15,18.32-81.69,26.25-98.68,17.2-36.87,37.53-61.03,45.28-69.74,26.65-29.9,53.58-46.54,60.68-47.09.71-.06,4.3-.19,6.79-2.72,1.98-2.01,2.08-4.33,2.72-6.79,1.29-4.96,5.19-12.2,9.96-13.13Z"/>
    <path class="st5" d="M371.64,483.94c-.75,5.47-1.18,12.79,0,21.28.81,5.85,2.2,10.88,3.62,14.94,10.42,3.62,20.83,7.25,31.25,10.87-4.53,7.25-9.06,14.49-13.58,21.74,8.24,10.04,18.13,20.83,29.89,31.7,18.85,17.42,37.43,30.34,53.43,39.85"/>
    <path class="st5" d="M589.45,493.91c3.47,8.15,6.94,16.3,10.42,24.45l-8.15,9.51c4.08,5.43,8.15,10.87,12.23,16.3-2.44,9.15-6.01,19.63-11.32,30.79-9.91,20.81-22.21,36.19-32.15,46.64"/>
    <circle class="st2" cx="514.74" cy="572.47" r="8.38"/>
    <circle class="st5" cx="525.38" cy="671.87" r="10"/>
    <path class="st2" d="M449.08,502.06c-1.12,1.01-1.76,2.26-2.26,14.04-.38,8.83.22,15.41,1.42,28.58.08.89.27,2.8,1.36,4.92.32.63,1.87,3.65,4.92,5.09,1.98.94,4.08.97,8.49,0,2.14-.47,8.49-1.99,17.32-6.45,5.32-2.69,7.98-4.03,9.34-5.6,1.2-1.38,2.27-3.13,4.08-3.23,1.47-.08,2.37.98,3.91,2.04,2.47,1.7,4.78,2.11,8.15,2.72,4.28.77,8.93,1.61,12.57-.85,2.28-1.54,3.34-3.83,5.77-3.74.95.04,1.61.42,2.38.85,2.47,1.39,5.14,2.46,7.47,4.08,2.06,1.42,9.68,6.68,17.83,6.45,2.33-.07,7.03-.2,10.19-3.4,2.11-2.13,2.17-4.26,2.09-22.42,0-1.89-.05-7.61-1.08-14.94-.9-6.47-1.78-8.56-3.57-9.85-2.01-1.45-4.35-1.31-8.94-1.02-2.03.13-5.54.37-9.91,1.87-2.43.83-7.39,2.53-12.23,6.62-2.18,1.85-2.91,2.98-4.75,3.23-2.65.36-3.81-1.62-7.53-3.11-.71-.28-5.56-2.16-10.87-.91-4.24,1-8.07,3.83-9.51,4.98-1.92,1.54-2.26,2.24-3.51,2.43-2.48.38-3.69-1.99-8.49-5.26-2.94-2-5.47-3.15-8.66-4.58-1.47-.66-4.43-2-7.47-2.89-3.24-.95-13.69-4-18.51.34Z"/>
  </g>
  <g id="head">
    <path class="st7" d="M308.7,305.08c-2.02,11.94-5.03,14-5.66,25.13-.73,13.01,2.65,23.07,4.3,27.85,3.34,9.64,5.94,17.14,13.36,23.55,1.01.87,14.29,12.03,30.11,9.96,5.65-.74,7.58-2.63,10.64-1.13,5.67,2.78,3.82,11.62,8.83,22.87,1.38,3.11,3.01,5.77,12,16.08,13.8,15.82,20.7,23.73,26.94,28.75,13.32,10.71,25.57,15.15,41.89,21.06,11.88,4.3,24.25,8.78,41.66,10.19,19.67,1.59,34.61-1.65,38.26-2.49,10.25-2.35,30.13-6.91,47.77-23.09,18.65-17.11,24.56-37.82,29.21-54.11,5.53-19.37,5.8-35.57,5.89-44.15.13-13.16-1.21-22.96-3.62-40.53-1.8-13.09-2.38-13.67-7.02-40.98-4.2-24.74-6.3-37.11-6.57-39.62-1.37-12.88-1.76-23.74-7.7-37.81-1.41-3.34-3.62-8.02-5.21-10.42-12.74-19.24-62.56-7.56-134.49,3.85-61.75,9.79-78.88,9.72-103.47,26.04-12.4,8.22-36.09,23.94-37.58,46.19-.66,9.75,3.24,16.42.45,32.83Z"/>
    <path class="st2" d="M319.57,293.75c-1.1-1.46-3.63-3.05-10.42-2.26-.03,1.01-.16,2.86-.91,4.98-1.48,4.22-4.4,6.7-4.98,7.25-5.21,4.87-13.43,32.08-2.26,58.42,1.88,4.43,9.35,22.98,23.09,28.08,14.25,5.28,26.26,4.98,26.26,4.98,3.12-.08,5.21-.39,7.7.91,5.63,2.92,5,9.7,9.06,20.83,3.78,10.39,9.05,17.47,12.23,21.74,1.79,2.41,5.84,7.59,13.58,14.49,3.64,3.24,17.7,15.43,43.47,27.17,11.88,5.41,22.88,10.42,38.94,13.58,7.54,1.48,25.27,4.35,47.55,1.36,11.21-1.5,21.8-2.93,33.96-9.51,8.2-4.44,13.54-9.3,21.74-16.75,8.08-7.35,14.79-13.45,21.28-23.55,6.69-10.4,9.64-19.57,11.32-24.91,1.24-3.94,4.01-13.52,5.43-33.96.53-7.67,1.17-21.09,0-42.11-1.1-19.74-3.09-33.79-5.89-53.43-2.44-17.19-4.55-31.7-9.06-50.26-2.99-12.31-5.83-21.43-7.25-25.81-2.84-8.81-5.67-16.43-8.15-22.64-3.92-.3-7.85-.6-11.77-.91,1.73,4.29,4.11,10.34,6.79,17.66,2.88,7.86,5.79,15.78,8.15,24,2.39,8.32,3.62,14.81,5.89,28.98,4.11,25.67,6.7,41.79,9.06,66.11,1.07,11.06,1.86,19.28,2.26,30.79,1.05,29.7-1.78,41.96-2.72,45.74-.51,2.05-2.8,11.06-7.7,22.19-2.34,5.32-4.77,10.84-9.06,17.21-7.4,10.98-15.61,17.48-19.92,20.83-12.69,9.87-24.7,14.27-29.43,15.85-19.57,6.51-35.9,4.85-48,3.62-7.84-.8-23.21-3-41.21-10.42-4.51-1.86-26.61-11.22-48.91-32.6-11.01-10.56-21.84-21.17-28.53-38.94-3.11-8.26-4.4-15.6-4.98-20.83-2.91,1.72-7.76,4.03-14.04,4.53-13.79,1.09-23.76-7.44-26.72-9.96-16.37-14-15.92-35.55-15.85-38.94.18-8.92,2.59-15.37,4.53-20.83,6.79-19.1,6.52-21.2,5.43-22.64Z"/>
  </g>
  <g id="face">
    <path class="st2" d="M318.37,331.95c1.35,1.83,5.49-1.27,11.77,0,4.79.97,9.88,4.3,9.96,7.7.04,1.83-1.4,2.43-3.17,4.98-3.28,4.74-4.77,12.03-2.26,17.21,2.55,5.26,8.95,7.8,9.96,6.79.82-.82-2.31-3.66-3.17-9.51-.5-3.4-.35-8.66,1.81-9.51.91-.36,1.77.23,8.15,4.08,3.74,2.25,4.12,2.46,4.53,2.26,2.2-1.07.36-11.83-4.53-20.83-3.04-5.6-6.81-12.53-14.49-14.49-5.03-1.28-11.41-.35-15.4,3.62-2.28,2.27-4.35,6.1-3.17,7.7Z"/>
    <path class="st2" d="M412.85,260.7c1.23.35,2.48-.83,4.98-3.17,7.33-6.86,11-10.28,12.23-11.32,7.06-5.98,18.79-8.56,28.08-6.79,5.1.97,9.13,3.18,12.23.91,2.72-1.99,2.72-5.97,2.72-6.34-.09-7.12-9.27-11.66-10.42-12.23-8.76-4.33-17.84-1.95-23.55-.45-8.05,2.11-13.41,5.79-15.4,7.25-4.08,3-10.22,7.5-12.68,15.4-2.23,7.15-1.08,15.93,1.81,16.75Z"/>
    <path class="st2" d="M526.51,232.17c-1.98-2.31-.43-7.12,1.36-9.96,4.62-7.36,15.04-8.23,19.47-8.6,2.9-.24,11.46-.85,20.38,4.08,2.63,1.45,10.03,5.54,12.68,13.58.13.4,2.15,6.7,0,8.15-1.76,1.18-4.83-1.86-10.42-4.53-1.51-.72-8.32-3.86-15.85-4.08-6.8-.2-9.8,2.12-22.19,2.72-1.76.09-4.14.16-5.43-1.36Z"/>
    <path class="st2" d="M432.09,275.87c-4.64,6.62-4.7,13.41-4.75,20.6-.04,4.99.02,13,4.53,21.74,2.24,4.35,5.83,11.31,14.04,14.94,1.72.76,10.27,4.31,19.47.45,8.15-3.42,11.61-10.47,13.58-14.49,5.85-11.91,3.41-23.3,2.72-26.26-.87-3.69-3.02-12.36-10.87-19.36-2.81-2.51-11.36-10.13-22.64-8.26-9.75,1.61-15.09,9.24-16.08,10.64Z"/>
    <path class="st1" d="M435.49,304.91c.79,0,.45-5.14,4.31-9.55.05-.05.12-.14.22-.24.69-.75,3.38-3.69,7.7-4.53.53-.1,4.18-.77,7.7.91,7.32,3.47,8.04,13.86,8.15,15.4.47,6.7-2.17,12.67-2.77,13.98-1.92,4.17-4.03,6.14-3.23,7.3,1.01,1.47,5.88.71,9.17-1.81,2.71-2.08,3.67-4.86,5.6-10.42.95-2.74,1.74-5.05,2.04-8.32.33-3.6-.11-6.42-.51-9-.44-2.83-1.02-4.9-1.71-7.36-1.16-4.11-1.74-6.17-2.7-8.09-1.2-2.38-3.48-6.93-8.6-9.34-4.46-2.1-8.66-1.45-10.11-1.2-4.02.68-6.7,2.54-8,3.47-1.44,1.03-5.16,3.96-7.25,9.11-1.09,2.71-1.32,5.01-1.53,7.13-.06.64-.33,3.58.17,7.47.13.99.66,5.1,1.36,5.09Z"/>
    <path class="st2" d="M519.72,278.58c-.59-1.63-1.91-5.23-3.06-5.09-.24.03-1.12.3-1.7,5.09-.51,4.25-1.37,11.37,2.04,20.04,1.22,3.09,3.84,9.51,10.19,14.6,5.35,4.28,11.19,5.9,15.62,7.13,7.43,2.06,9.91,1.13,14.26,4.08,1.22.82,5.18,3.59,7.13,8.83,2.19,5.87.46,11.13-.34,13.58-2.33,7.12-7.26,11.17-9.85,13.25-8,6.41-16.64,7.42-20.38,7.81-1.47.15-13.29,1.24-24.45-4.75-5.13-2.75-9.15-6.48-9.85-7.13-2.22-2.08-3.4-3.18-4.75-5.09-1.83-2.58-2.21-4.13-3.06-4.08-1.38.09-2.45,4.33-2.72,7.47-.3,3.44.48,4.25-.34,5.43-1.45,2.08-4.65.68-9.85,1.7-3.07.6-5.67,2.1-10.87,5.09-4.94,2.85-5.24,3.7-9.85,6.11-3.6,1.89-5.4,2.83-7.81,3.4-6.48,1.52-12.07-.44-14.6-1.36-4.97-1.81-8.4-4.59-9.85-5.77-3.72-3.06-6.79-6.11-6.79-6.11-2.95-2.93-3.97-4.34-5.09-4.08-.6.14-1.83.91-2.38,6.79-.97,10.51,1.96,18.96,2.72,21.06,1.12,3.08,3.05,8.28,7.47,13.92,1.81,2.31,5.62,7.08,12.23,10.87,4.45,2.55,8.44,3.66,11.21,4.42,3.55.97,6.03,1.64,9.51,1.7,5.3.09,6.93-1.36,8.83,0,2.14,1.53,1.12,4.09,3.06,8.83,1.15,2.81,2.56,4.47,5.09,7.47,1.69,2,5.39,6.29,11.55,9.85,4.52,2.61,8.26,3.61,12.57,4.75,8.09,2.15,14.56,2.35,16.64,2.38,5.85.09,11.39.17,18-2.38,5.65-2.18,9.51-5.29,12.23-7.47,4.02-3.24,6.82-6.41,8.49-8.49,1.95-2.43,5.55-6.98,8.15-13.92,1.64-4.38,2.38-8.38,2.72-11.55,1.32.32,3.19.72,5.43,1.02,1.01.14,5.26.68,10.87.34,5.12-.31,14.92-.9,25.81-6.45,3.14-1.6,7.4-3.82,11.89-8.15,6.68-6.45,9.45-13.34,10.87-16.98,1.21-3.09,3.94-10.97,3.06-20.72-.61-6.76-2.37-7.85-3.06-8.15-.49-.22-2.39-.9-8.83,3.74-7.74,5.57-8.05,8.76-13.58,11.21-1.8.8-5.86,2.6-10.19,1.36-4.12-1.18-3.87-3.79-8.83-6.45-5.94-3.19-9.87-1.37-11.55-4.42-.68-1.24-.2-1.85,0-7.47.09-2.47.19-5.29,0-7.47-.74-8.47-6.23-10.94-4.75-15.28.72-2.12,2.17-1.96,5.43-5.09,4.16-4,6.03-8.32,7.13-10.87,4.23-9.77,2.45-19.12,1.7-23.09-.66-3.48-2.15-10.86-7.81-18-1.65-2.08-4.62-5.75-9.85-8.49-2.45-1.29-6.6-3.46-12.23-3.06-1.44.1-5.96.49-10.19,3.74-3.3,2.54-4.71,5.51-6.45,9.17-.57,1.2-2.52,5.47-3.4,11.55-.98,6.77-.1,12.1.34,14.6.9,5.2,2.38,9.51,2.38,9.51,1.48,4.32,2.61,5.95,2.04,6.45-1.04.91-6.67-2.71-10.53-7.81-3.88-5.13-5.18-10.72-5.43-11.89-.84-3.83-.58-6.29-2.38-11.21Z"/>
    <path class="st4" d="M541.45,284.7c-1.02-.37-.89-4.5.34-8.15.56-1.67,3.27-9.71,10.87-11.55,4.44-1.07,8.15.56,9.17,1.02,5.2,2.37,7.41,7.09,9.17,10.87,3.76,8.05,3.33,15.31,3.06,20.04-.33,5.68-.73,11.1-4.75,15.62-1.68,1.89-3.49,3.05-4.75,3.74-1.7-.91-3.4-1.81-5.09-2.72,1.28-2.3,2.99-5.88,4.08-10.53,1.29-5.51,2.74-11.72-.68-16.98-2.72-4.19-7.09-5.56-7.81-5.77-1.17-.35-5.21-1.55-8.83.34-3.07,1.6-3.88,4.39-4.75,4.08Z"/>
    <path class="st3" d="M510.89,438.55c-3.04,0-8.19-.06-14.26-2.38-4.21-1.61-9.68-3.7-12.57-9.17-.67-1.26-2.71-5.13-1.36-9.51.12-.39,1.32-4.08,4.75-6.11,5.3-3.13,9.63,1.42,20.38,2.38,9.42.84,18.04-1.6,20.72-2.38,8.3-2.41,12.28-5.57,15.62-3.4,3.26,2.12,3.07,7.48,3.06,7.81-.05,1.04-.36,3.98-5.09,9.17-2.04,2.24-6.39,6.89-13.92,10.19-7.64,3.34-14.25,3.4-17.32,3.4Z"/>
  </g>
  <g id="text">
    <g>
      <path class="st8" d="M330.51,796.14v-63.9c0-7.9,2.3-13.89,7.11-18.94,4.81-5.01,11.13-7.99,18.8-8.01,9.1-.05,15.89,5.26,20.23,17.2,3.23-5.92,6.63-10.34,10.17-13.05,3.54-2.7,7.83-4.15,12.85-4.15,7.97-.02,13.88,3.88,17.75,12.2,3.87,8.28,5.45,20.46,4.75,36.06-1.53,33.92-3.06,67.84-4.58,101.76-8.85-3.94-17.55-8.33-26.06-13.17,1.37-28.95,2.73-57.91,4.1-86.86.2-4.3.11-7.2-.27-8.67-.38-1.48-1.26-2.32-2.63-2.54-2.57-.41-4,2.6-4.3,9.03-1.32,28.3-2.63,56.6-3.95,84.9-8.4-5.09-16.6-10.63-24.57-16.62.93-24.56,1.85-49.12,2.78-73.68.14-3.6,0-6.06-.42-7.37-.42-1.31-1.3-2.09-2.65-2.37-2.52-.5-3.88,2.11-4.06,7.86-.77,23.47-1.54,46.94-2.31,70.41-7.83-6.24-15.42-12.94-22.73-20.08Z"/>
      <path class="st8" d="M465.15,752.73c-1.28,39.36-2.57,78.71-3.85,118.07-9.26-2.49-18.42-5.44-27.45-8.83,2.11-50.96,4.21-101.91,6.32-152.87,11.29.11,22.58.19,33.87.26,10.32.05,18.19,4.86,23.72,14.67,6.16,10.96,9.18,24.96,8.93,41.78-.26,17.14-4.52,31.47-12.94,42.34,4.81,23.61,9.79,47.47,14.94,71.41-9.95-1.03-19.87-2.55-29.7-4.57-4.08-18.72-8.06-37.26-11.95-55.51.43-13.93.87-27.86,1.3-41.8.71.08,1.42.16,2.13.24,5.69.63,8.66-3.54,8.89-12.42.21-7.83-2.95-11.94-9.46-12.41-1.58-.12-3.17-.24-4.75-.37Z"/>
      <path class="st8" d="M535.84,824.82c4.49.04,8.34,2.98,11.6,8.87,3.26,5.88,4.93,12.89,4.98,21.09.05,8.2-1.54,15.24-4.8,21.06-3.26,5.82-7.23,8.75-11.89,8.69-4.84-.07-8.82-3.02-11.89-8.74-3.07-5.72-4.55-12.9-4.47-21.5.08-8.35,1.74-15.32,4.94-21.01,3.21-5.69,7.04-8.5,11.52-8.46Z"/>
      <path class="st8" d="M570.76,879.56c-.56-40.86-1.11-81.72-1.67-122.58-.2-15.2,2.08-27.68,6.75-37.32,4.68-9.64,10.8-14.38,18.46-14.38,9.09.01,16.3,7.79,21.74,22.73,2.73-8.29,5.74-14.12,9.04-17.59,3.3-3.47,7.45-5.15,12.47-5.15,7.97.01,14.25,4.31,18.88,12.41,4.62,8.13,7.28,19.56,7.98,34.78,1.53,33.17,3.06,66.35,4.6,99.52-8.77,4.18-17.7,7.92-26.76,11.2-1.35-33.41-2.7-66.82-4.05-100.23-.2-4.97-.56-8.23-1.09-9.8-.52-1.57-1.49-2.28-2.88-2.14-2.62.26-3.79,4.29-3.49,12.1,1.31,34.24,2.61,68.47,3.92,102.71-9.13,3.03-18.38,5.61-27.71,7.75-1.01-35.61-2.03-71.22-3.04-106.82-.15-5.21-.49-8.68-1.03-10.41-.54-1.73-1.51-2.55-2.92-2.46-2.64.17-3.86,4.66-3.63,13.49.91,35.97,1.82,71.93,2.74,107.9-9.37,1.88-18.82,3.31-28.31,4.29Z"/>
      <path class="st8" d="M706.08,740.57c1.25,29.27,2.5,58.53,3.75,87.8-8.15,5.63-16.52,10.81-25.08,15.54-2.13-45.08-4.26-90.16-6.39-135.25,11.27-.15,22.53-.31,33.79-.5,10.28-.14,18.37,2.92,24.07,8.1,6.36,5.86,9.41,12.59,9.46,21.62.04,9.19-3.54,18.28-10.58,28.81,4.97,11.5,9.62,21.38,13.83,29.45-7.67,7.49-15.65,14.49-23.89,21-4.21-8.72-8.62-18.49-13.17-29.21-.41-10.08-.83-20.16-1.24-30.25.67-.2,1.34-.4,2-.6,5.33-1.64,7.87-5.47,7.66-11.38-.18-5.22-3.38-7.19-9.64-6.01-1.52.29-3.05.58-4.57.87Z"/>
    </g>
    <g>
      <path class="st8" d="M186.8,803.31c5.21-6.12,10.43-12.24,15.64-18.37,5.28,4.5,9.31,5.02,11.97,1.75,2.44-3,1.66-6.11-2.28-9.44-3.98-3.37-7.68-3.11-11.17.89-13.16,15.11-26.32,30.22-39.48,45.32-9.6-8.38-18.98-17.14-28.12-26.28,13.5-13.5,27-27,40.5-40.5,4.19-4.19,8.16-7.1,11.88-8.76,3.72-1.66,7.96-2.44,12.73-2.4,5.33.07,10.78,1.27,16.42,3.53,5.64,2.26,10.7,5.28,15.28,9.12,8.28,6.95,13.42,14.9,15.62,24.39,2.2,9.47.85,18.02-4.52,25.63-5.21,7.37-12.32,11.35-21.54,11.52-8.41.18-18.19-3.96-28.79-12.81-1.39-1.19-2.77-2.39-4.15-3.59Z"/>
      <path class="st8" d="M291.81,832.36c-4.33,7.87-8.67,15.75-13,23.62-1.44-1.92-2.94-3.33-4.5-4.21-4.97-2.82-9.21-1.28-12.77,4.76-5.38,9.16-10.77,18.32-16.15,27.48-9.81-5.77-19.48-11.87-28.99-18.3,6.84-10.16,13.68-20.31,20.52-30.47,5.43-8.05,12.51-12.57,21.05-13.92,8.55-1.35,17.18.66,26.28,5.9,2.03,1.17,4.55,2.89,7.58,5.12Z"/>
      <path class="st8" d="M333.71,852.1c10.24,4.43,17.81,11.04,23.08,20.26,5.26,9.2,6.63,18.28,3.57,27.36-3.1,9.18-9.88,15.68-20.71,19.01-10.82,3.32-22.52,2.45-34.5-2.76-11.99-5.21-20.68-13.23-25.73-23.48-5.06-10.28-5-19.7-.41-28.18,4.69-8.66,12.43-13.83,22.89-16.04,10.48-2.21,20.9-.9,31.82,3.83ZM323.06,874.59c-3.04-1.32-6.02-1.59-8.96-.78-2.94.81-5.02,2.48-6.21,5.05-1.17,2.53-1.08,5.2.32,8.01,1.4,2.81,3.67,4.91,6.78,6.26,3.17,1.38,6.27,1.61,9.27.72,3-.9,5.01-2.65,6.06-5.23,1.07-2.62.88-5.28-.53-7.98-1.41-2.7-3.64-4.7-6.74-6.05Z"/>
      <path class="st8" d="M434.39,859.46c9.07,1.86,18.18,3.46,27.33,4.78-2.68,18.47-5.37,36.94-8.05,55.42-1.47,10.17-6,18.02-13.93,23.28-4.56,3.03-10.15,5.08-16.74,6.05-6.59.97-13.19.71-19.68-.77-12.93-2.96-22.95-9.19-29.64-18.17-6.7-9-8.29-18.24-5.29-27.56,2.9-9.04,9.42-15.51,19.14-19.86,9.73-4.36,19.61-5.27,30.15-2.82,1.67.39,4.18,1.1,7.53,2.1-1.95,9.05-3.91,18.09-5.86,27.14-2.13-2.11-4.41-3.45-6.86-4.01-3.1-.71-5.96-.42-8.64.88-2.68,1.3-4.37,3.25-5.04,5.86-.64,2.52-.03,4.99,1.88,7.38,1.91,2.39,4.55,3.99,7.87,4.75,8,1.82,12.92-1.78,14.7-10.53,3.71-17.97,7.42-35.95,11.13-53.92Z"/>
      <path class="st8" d="M473.3,891.68c9.68,1.09,19.39,1.9,29.11,2.42-.68,12.63-1.36,25.25-2.04,37.88-.21,3.81,1.69,5.84,5.72,6.01,3.97.17,6.01-1.69,6.12-5.51.4-12.64.8-25.28,1.19-37.92,9.73.3,19.46.32,29.19.06.35,12.48.69,24.97,1.04,37.45.25,8.7-3.19,16.2-10.67,22.26-7.47,6.05-16.94,8.97-28.02,8.5-12.63-.54-22.57-4.86-29.42-12.51-5.33-5.98-7.32-13.82-6.22-23.42,1.33-11.74,2.67-23.48,4-35.22Z"/>
      <path class="st8" d="M612.72,923.47c10.19-1.95,20.32-4.19,30.38-6.73,1.23,9.66-1.52,18.47-8.64,26.22-7.11,7.74-16.98,12.64-29.2,14.31-12.93,1.77-24.32-.6-33.62-6.77-9.32-6.19-14.01-14.43-14.53-24.37-.5-9.47,3.27-17.75,10.8-25.08,7.55-7.35,16.6-11.61,27.59-13.11,9.61-1.31,18.44-.12,26.85,3.68,8.41,3.8,14.53,9.37,18.18,16.99-10.12,2.54-20.3,4.77-30.55,6.7-3.11-2.42-6.66-3.34-10.71-2.79-3.46.47-6.17,1.76-8.17,3.9-2,2.14-2.86,4.63-2.54,7.49.33,2.9,1.81,5.2,4.48,6.87,2.67,1.67,5.85,2.27,9.5,1.76,5.34-.74,8.75-3.8,10.16-9.07Z"/>
      <path class="st8" d="M665.81,848.68c2.51,8.21,5.02,16.41,7.54,24.62,4.22-1.29,8.42-2.63,12.61-4.03,2.82,8.41,5.65,16.83,8.47,25.24-4.41,1.48-8.84,2.9-13.29,4.25,1.56,5.11,3.64,8.33,6.27,9.63,2.62,1.3,6.67,1.09,12.07-.72,2.82,8.37,5.64,16.73,8.46,25.1-1.63.59-2.84,1.02-3.64,1.28-7.21,2.37-14.45,3.19-21.58,2.47-7.13-.72-13.18-2.84-18.13-6.26-6.27-4.38-10.43-11.3-12.67-20.6-4.33-17.88-8.66-35.76-12.99-53.65,9.01-2.17,17.98-4.62,26.88-7.33Z"/>
      <path class="st8" d="M726.76,852.51c9,20.51,18,41.02,27,61.54-10.29,4.51-20.68,8.7-31.17,12.56-7.75-21.01-15.5-42.03-23.25-63.04,9.23-3.4,18.38-7.08,27.43-11.05ZM701.96,830.4c3.49-1.41,6.95-1.55,10.45-.43,3.5,1.12,5.93,3.15,7.25,6.15,1.41,3.21,1.34,6.39-.28,9.52-1.61,3.14-4.42,5.54-8.39,7.13-3.96,1.6-7.64,1.81-10.97.67-3.33-1.14-5.58-3.39-6.79-6.67-1.13-3.08-.8-6.22.93-9.45,1.73-3.23,4.32-5.52,7.81-6.92Z"/>
      <path class="st8" d="M775.3,826.28c9.78-5.68,19.76-7.96,30.48-6.86,10.71,1.1,18.95,5.29,24.45,13.14,5.56,7.94,6.66,17.34,2.71,28.17-3.94,10.81-11.79,19.84-23.24,26.47-11.46,6.63-23.1,8.88-34.34,6.85-11.26-2.04-18.77-7.7-22.86-16.44-4.18-8.92-3.77-18.2.66-27.92,4.44-9.74,11.73-17.36,22.15-23.41ZM787.05,848.22c-2.91,1.68-4.91,3.93-6.03,6.79-1.11,2.86-1.01,5.53.34,8.01,1.34,2.44,3.54,3.95,6.65,4.49,3.11.53,6.17-.06,9.15-1.78,3.03-1.75,5.1-4.13,6.19-7.1,1.1-2.97.9-5.64-.55-8.02-1.47-2.42-3.74-3.83-6.78-4.28-3.04-.45-6.02.18-8.98,1.89Z"/>
      <path class="st8" d="M924.52,797.19c-8.42,8.42-17.05,16.52-25.86,24.29-8.36-9.49-16.71-18.98-25.07-28.47-2.56-2.9-5.37-2.98-8.47-.3-3.06,2.63-3.37,5.4-.89,8.37,8.13,9.69,16.26,19.37,24.39,29.06-8.95,7.53-18.08,14.73-27.37,21.61-7.42-10.05-14.84-20.1-22.25-30.15-5.2-7.06-6.6-15.16-4.61-24.27,1.99-9.13,6.8-16.82,14.58-23.53,8.9-7.68,18.15-11.58,28.27-11.68,7.9-.08,15.34,3.15,22.21,10.01,8.35,8.35,16.71,16.71,25.06,25.06Z"/>
    </g>
  </g>
  <g id="hand">
    <path class="st7" d="M693.6,500.25c-1.01-2.53-1.88-10.59-3.62-26.72-1.36-12.56-1.3-14.42-2.26-23.77-3.1-30.12-4.65-45.18-7.7-53.89-2.6-7.43-5.48-13.11-2.94-19.25,2.25-5.45,8.26-10.02,14.49-9.96,7.82.07,12.96,7.42,15.85,11.55,8.01,11.45,6.23,21.87,9.74,22.42,3.04.47,5.63-7.18,13.36-21.28,11-20.08,18.09-27.08,21.74-30.34,10.42-9.31,16.75-9.53,18.57-9.51,4.35.05,4.93,1.71,12.91,3.17,10.6,1.94,12.35-.47,16.98,2.04,5.85,3.18,4.1,7.62,10.64,13.36,7.06,6.2,12.17,3.73,16.08,8.15,2.4,2.71,4.58,8.29-3.17,31.25-3.04,9-7.13,19.26-21.06,46.19-11.54,22.32-13.71,24.9-15.62,26.94-11.18,11.95-19.07,11.3-24.45,21.74-6.76,13.1,1.81,21.65-4.08,28.53-10.87,12.7-56.24,2.4-65.43-20.6Z"/>
    <path class="st2" d="M768.55,503.19c-1.41-2.38-2.03-5.91-.45-7.92.92-1.18,2.32-1.49,2.72-1.58,7.01-1.72,18.14-15.53,19.47-17.21,4.01-5.03,7.2-11.81,13.58-25.36,4.2-8.91,3.44-8.11,7.02-15.62,6.6-13.85,13.67-25.97,15.17-28.53,5.82-9.93,7.48-11.75,9.28-17.43,1.3-4.09,2.81-10.64,1.58-18.34-.79-4.94-1.24-7.78-3.62-9.74-5.25-4.3-14.12.45-16.3-3.17-.8-1.33.32-2.08.23-5.89-.03-1.48-.14-6.14-2.72-9.51-3.29-4.3-9.62-5.22-13.81-4.75-5.91.65-7.33,4.01-10.87,2.94-3.66-1.1-3.01-4.96-7.7-8.15-4.57-3.12-9.89-2.64-11.55-2.49-4.89.44-8.16,2.62-12.91,5.89-5.73,3.94-9.64,8-12,10.64-2.21,2.48-8,9.22-14.49,21.28-6.79,12.63-8.79,20.76-11.32,20.38-1.49-.22-1.42-3.13-3.4-8.15-1.14-2.9-5.02-12.74-14.26-17.89-7.95-4.43-15.89-3.17-17.21-2.94-2.56.44-8.06,1.39-12.45,6.11-4.82,5.17-5.14,11.48-5.21,13.36-.17,4.58,1.62,8.64,5.21,16.75,3.54,8.03,5.05,9.2,6.57,14.94,1.17,4.45,1.41,8.07,1.58,10.87.47,7.69-.78,8.53-.68,16.3.09,6.89.16,11.56,2.26,17.21,2.18,5.83,4.77,7.95,3.85,11.77-.91,3.8-4.03,4.06-4.53,7.47-.81,5.49,6.2,11.91,8.6,10.87,2.26-.98-.39-8.21,2.49-9.74,2.09-1.11,4.63,2.09,12,4.53.94.31,7.44,2.46,8.15,1.13.57-1.06-3.16-3.21-7.7-8.83-3.04-3.77-4.82-7.08-6.11-9.51-1.3-2.45-3.75-7.12-5.21-12.91-1.26-5-.72-6.61-.91-23.77-.07-6.89-.12-10.37-.45-12.45-1.27-7.86-4.35-14.76-5.66-17.66-2.34-5.16-4.37-8.29-4.75-13.81-.28-4.03.58-5.65,1.36-6.57,2.62-3.07,7.84-2.23,9.06-2.04,5.31.85,8.64,4.4,11.09,7.02,1.79,1.91,7.73,8.24,8.6,16.98.13,1.32.36,4.77,1.13,9.74.5,3.18.84,4.54,1.81,5.89,1.82,2.5,4.35,2.87,6.57,3.85,6.12,2.72,8.76,9.76,10.19,13.58,3.58,9.56.62,17.66,3.4,18.57,1.32.43,2.89-1.1,3.4-1.58,6.49-6.28,5.56-25.13-4.08-33.28-3.48-2.94-8.08-4.49-8.38-8.38-.05-.66.03-1.34,1.81-6.11,1.35-3.61,2.02-5.41,2.94-7.47,2.11-4.73,4.56-9.2,7.25-13.58,4.7-7.68,8.57-12.52,16.3-22.19,1.21-1.51,4.6-5.7,9.96-9.74,2.76-2.08,5.64-3.82,9.28-3.85,1.29-.01,3.28,0,4.75,1.36,2.42,2.24,1.58,6.4,1.36,7.47-.17.82-.57,2.34-2.94,5.89-2.45,3.65-3.68,4.51-6.11,7.7-1.97,2.58-1.55,2.51-5.21,8.15-3.52,5.42-3.57,4.96-6.34,9.28-4.59,7.17-4.15,8-6.57,10.19-4.49,4.08-8.75,3.74-8.83,5.43-.11,2.36,8.14,2.94,16.98,7.47,13,6.67,19.27,17.79,21.06,16.53,1.17-.83-2.18-5.15-1.13-11.55.52-3.2,1.91-5.44,4.3-8.83,5.59-7.92,9.17-11.5,17.43-20.83,4.83-5.45,7.64-8.77,12.68-10.19,4.12-1.16,6.26-.07,6.79.23,3.34,1.86,3.96,6.32,4.08,7.47.5,4.96-2.32,7.72-7.92,17.66-2.4,4.26-1.07,2.32-5.43,10.42-5.81,10.8-7.36,12.74-10.87,19.7-1.31,2.59-2.83,6.03-5.89,12.91-7.68,17.29-7.73,18.64-11.09,24.45-4.72,8.16-8.66,12.5-11.77,15.4-2.45,2.28-4.46,4.16-7.7,5.89-7.06,3.77-14.08,3.72-19.47,3.62-8.7-.16-13.8-2.12-14.26-.91-.55,1.45,6.29,5.23,7.47,5.89,4.31,2.38,8.29,4.58,13.36,4.3,4.53-.25,5.84-1.77,7.02-.91,4.54,3.33-13.18,29.68-9.51,32.6,3.53,2.81,25.46-17.14,22.42-22.87-.69-1.29-2.35-1.32-3.85-3.85Z"/>
    <path class="st0" d="M790.06,354.89c4.85-4.47,7.93-6.43,11.32-5.89,3.11.5,6.21,3.06,6.79,6.11.62,3.23-1.79,5.95-4.98,9.74-11.2,13.3-16.6,20.26-19.7,25.13-1.46,2.3-3.09,4.48-4.53,6.79-3.33,5.37-3.88,7.16-5.66,7.47-.75.13-1.53-.03-7.47-4.3-3.04-2.19-4.56-3.28-4.75-3.62-2-3.51,2.69-8.9,13.58-23.55,4.3-5.78,8.39-11.42,15.4-17.89Z"/>
  </g>
  <g id="Hat_x2F_hair">
    <path class="st2" d="M571.79,153.38c-.94-10.1-4.42-31.6-20.38-51.62-3.45-4.33-12.05-14.32-26.26-22.64-17.45-10.21-33.24-12.06-47.55-13.58-22.98-2.45-40.79.48-51.17,2.26-10.4,1.79-22.11,3.8-36.68,9.96-8.25,3.49-25.71,11.81-43.02,28.53-4.79,4.62-15.49,14.96-23.09,28.98-18.09,33.37-9.15,70.19-5.43,82.87-8.34,3.25-23.32,10.57-34.42,26.26-4.1,5.81-8.42,12.07-9.06,20.83-1.22,16.81,12.83,35.1,28.53,38.94,13.18,3.22,19.65-5.69,34.42,0,3.91,1.51,10.49,4.04,15.4,10.42,5.89,7.65,5.55,15.88,12.23,18.57.77.31,3.82,1.43,6.79.45,11.93-3.92,12-38.12,9.51-57.06-1.58-11.98-4.78-22.35-5.89-25.81-2.06-6.41-4.22-11.65-5.89-15.4,6.63-3.66,15.82-8.29,27.17-12.68,4.02-1.56,20.8-7.91,44.83-12.23,10.44-1.88,18.43-2.61,34.42-4.08,14.54-1.33,26.3-1.93,41.66-2.72,12.05-.61,18.08-.92,22.64-.91,16.58.06,30.36,2.08,40.3,4.08,2.11,6.79,4.23,13.58,6.34,20.38,1.64-.09,30.17-2.08,41.66-24.45,1.19-2.31,7.23-14.64,3.62-28.98-.94-3.75-2.71-10.42-8.6-15.4-3.94-3.33-8.45-4.82-15.85-5.89-7.85-1.13-20.29-1.98-36.23.91Z"/>
    <path class="st6" d="M364.4,203.19c18.08-11.1,43.48-24.05,75.62-33.06,43.47-12.17,81.18-12.05,105.96-9.96-25.51,8.51-53.33,16.69-83.32,24-34.96,8.52-67.9,14.64-98.26,19.02Z"/>
  </g>
</svg>